<?xml version="1.0" encoding="UTF-8"?>
<svg width="37px" height="32px" viewBox="0 0 37 32" version="1.1" xmlns="http://www.w3.org/2000/svg" xmlns:xlink="http://www.w3.org/1999/xlink">
    <!-- Generator: Sketch 52.1 (67048) - http://www.bohemiancoding.com/sketch -->
    <title>icon-comment</title>
    <desc>Created with Sketch.</desc>
    <g id="Desktop" stroke="none" stroke-width="1" fill="none" fill-rule="evenodd">
        <g id="Icon/Comment/Blank" fill="#FFFFFF" stroke="#37474F">
            <path d="M6.87755102,31.9468494 C6.86036854,31.9645988 6.84314873,31.9823157 6.82589168,32 L6.63730405,32 L6.37755102,31.7428651 L6.87755102,31.7428651 L6.87755102,31.9468494 Z M7.29603494,31.5 L8.10606391,31.5 C11.7474087,30.4193968 14.9330275,28.1817625 17.1805922,25.1563735 L17.3305294,24.9545468 L17.5819571,24.9545455 L28.4992587,24.9545455 C32.6409036,24.9545455 36,21.5954948 36,17.4529618 L36,8.00158365 C36,3.85672134 32.6428051,0.5 28.4992587,0.5 L8.50074125,0.5 C4.35909639,0.5 1,3.85905062 1,8.00158365 L1,17.4529618 C1,21.5978241 4.35719487,24.9545455 8.50074125,24.9545455 L11.1282301,24.9545455 L10.8759646,25.629577 C10.0665138,27.7955686 8.84863344,29.7861813 7.29603494,31.5 Z" id="icon-bubble-white"></path>
        </g>
    </g>
</svg>